<svg id="visual" viewBox="0 0 900 600" width="900" height="600" xmlns="http://www.w3.org/2000/svg" xmlns:xlink="http://www.w3.org/1999/xlink" version="1.1"><rect x="0" y="0" width="900" height="600" fill="#d0ebff"></rect><path d="M0 132L12.5 137.8C25 143.7 50 155.3 75 154C100 152.7 125 138.3 150 133.3C175 128.3 200 132.7 225 137.5C250 142.3 275 147.7 300 149.8C325 152 350 151 375 165.5C400 180 425 210 450 214.5C475 219 500 198 525 195.7C550 193.3 575 209.7 600 215.2C625 220.7 650 215.3 675 201C700 186.7 725 163.3 750 161.8C775 160.3 800 180.7 825 189.2C850 197.7 875 194.3 887.5 192.7L900 191L900 0L887.5 0C875 0 850 0 825 0C800 0 775 0 750 0C725 0 700 0 675 0C650 0 625 0 600 0C575 0 550 0 525 0C500 0 475 0 450 0C425 0 400 0 375 0C350 0 325 0 300 0C275 0 250 0 225 0C200 0 175 0 150 0C125 0 100 0 75 0C50 0 25 0 12.5 0L0 0Z" fill="#1f18a8"></path><path d="M0 193L12.5 185.5C25 178 50 163 75 156C100 149 125 150 150 147.7C175 145.3 200 139.7 225 139.3C250 139 275 144 300 137.7C325 131.3 350 113.7 375 103.5C400 93.3 425 90.7 450 106.7C475 122.7 500 157.3 525 171C550 184.7 575 177.3 600 169.5C625 161.7 650 153.3 675 155C700 156.7 725 168.3 750 175.8C775 183.3 800 186.7 825 171.8C850 157 875 124 887.5 107.5L900 91L900 0L887.5 0C875 0 850 0 825 0C800 0 775 0 750 0C725 0 700 0 675 0C650 0 625 0 600 0C575 0 550 0 525 0C500 0 475 0 450 0C425 0 400 0 375 0C350 0 325 0 300 0C275 0 250 0 225 0C200 0 175 0 150 0C125 0 100 0 75 0C50 0 25 0 12.5 0L0 0Z" fill="#0045bb"></path><path d="M0 126L12.5 117.8C25 109.7 50 93.3 75 82.7C100 72 125 67 150 64.2C175 61.3 200 60.7 225 68C250 75.3 275 90.7 300 93C325 95.3 350 84.7 375 89.7C400 94.7 425 115.3 450 123.2C475 131 500 126 525 120.7C550 115.3 575 109.7 600 111.7C625 113.7 650 123.3 675 116.5C700 109.7 725 86.3 750 85.5C775 84.7 800 106.3 825 108.8C850 111.3 875 94.7 887.5 86.3L900 78L900 0L887.5 0C875 0 850 0 825 0C800 0 775 0 750 0C725 0 700 0 675 0C650 0 625 0 600 0C575 0 550 0 525 0C500 0 475 0 450 0C425 0 400 0 375 0C350 0 325 0 300 0C275 0 250 0 225 0C200 0 175 0 150 0C125 0 100 0 75 0C50 0 25 0 12.5 0L0 0Z" fill="#0067c6"></path><path d="M0 39L12.5 46.3C25 53.7 50 68.3 75 77.7C100 87 125 91 150 85.7C175 80.3 200 65.7 225 63.3C250 61 275 71 300 69.2C325 67.3 350 53.7 375 51C400 48.3 425 56.7 450 64.2C475 71.7 500 78.3 525 75.2C550 72 575 59 600 53.2C625 47.3 650 48.7 675 46C700 43.3 725 36.7 750 38.3C775 40 800 50 825 49C850 48 875 36 887.5 30L900 24L900 0L887.5 0C875 0 850 0 825 0C800 0 775 0 750 0C725 0 700 0 675 0C650 0 625 0 600 0C575 0 550 0 525 0C500 0 475 0 450 0C425 0 400 0 375 0C350 0 325 0 300 0C275 0 250 0 225 0C200 0 175 0 150 0C125 0 100 0 75 0C50 0 25 0 12.5 0L0 0Z" fill="#2484c7"></path></svg>